<svg width="40" height="40" viewBox="0 0 40 40" fill="none" xmlns="http://www.w3.org/2000/svg">
 <g stroke-width=".92503" aria-label="BE">
  <path d="m2.5 33.18v-26.28h7.452q3.6 0 5.616 1.8 2.052 1.8 2.052 5.004 0 1.8-0.756 3.132t-2.16 2.052q-1.368 0.72-3.312 0.684v-0.54q2.088-0.036 3.6 0.792 1.548 0.828 2.376 2.376 0.864 1.548 0.864 3.672 0 2.232-0.936 3.888t-2.664 2.556q-1.728 0.864-4.14 0.864zm3.168-2.916h4.464q2.268 0 3.564-1.188 1.332-1.224 1.332-3.312 0-2.16-1.332-3.492-1.296-1.368-3.564-1.368h-4.464zm0-12.168h4.248q2.088 0 3.276-1.116 1.224-1.116 1.224-3.024t-1.188-3.024q-1.188-1.116-3.276-1.116h-4.284z" fill="#e01839"/>
  <path d="m22.352 33.18v-26.28h15.12v2.952h-11.916v8.136h10.656v2.916h-10.656v9.324h11.916v2.952z" fill="#f6a46f"/>
 </g>
</svg>
